<svg width="72" height="71" viewBox="0 0 72 71" fill="none" xmlns="http://www.w3.org/2000/svg">
<g clip-path="url(#clip0_6028_257)">
<path d="M70.9926 2.43586C69.6483 0.207736 66.4657 -0.0198298 64.8092 1.99319L37.1704 35.595C36.4939 36.4172 35.2081 36.372 34.5924 35.5054L27.968 26.1768C25.714 23.0025 21.0219 22.7983 18.4929 25.7629C16.7487 27.8079 16.6167 30.753 18.1705 32.9414L31.7299 52.0367C33.3801 54.3607 36.8724 54.3568 38.5171 52.0281L42.4094 46.5182L70.8401 6.47905C71.6928 5.2781 71.7521 3.69604 70.9926 2.43586Z" fill="#2ABB5B"/>
<path d="M35.9597 70.5303C16.3497 70.5303 0.39563 54.7979 0.39563 35.4602C0.39563 16.1226 16.3497 0.390106 35.9597 0.390106C40.7585 0.390106 45.4174 1.31752 49.8044 3.1474C51.4119 3.81841 52.1643 5.64751 51.4838 7.23268C50.8049 8.81862 48.9493 9.56055 47.341 8.88954C43.7379 7.38698 39.9081 6.62479 35.9597 6.62479C19.8357 6.62479 6.71813 19.5602 6.71813 35.4602C6.71813 51.3602 19.8357 64.2957 35.9597 64.2957C52.0836 64.2957 65.2013 51.3602 65.2013 35.4602C65.2013 32.9289 64.8693 30.4187 64.2142 27.9996C63.7637 26.3365 64.7658 24.6275 66.4523 24.1832C68.1381 23.7382 69.8712 24.7272 70.3217 26.3911C71.1191 29.3346 71.5238 32.3857 71.5238 35.4602C71.5238 54.7979 55.5697 70.5303 35.9597 70.5303Z" fill="#2ABB5B"/>
</g>
<defs>
<clipPath id="clip0_6028_257">
<rect width="72" height="71" fill="white"/>
</clipPath>
</defs>
</svg>
